<?xml version="1.0" encoding="utf-8"?>
<!-- Generator: Adobe Illustrator 24.3.0, SVG Export Plug-In . SVG Version: 6.00 Build 0)  -->
<svg version="1.1" id="Linkedin_1_" xmlns="http://www.w3.org/2000/svg" xmlns:xlink="http://www.w3.org/1999/xlink" x="0px"
	 y="0px" viewBox="0 0 80 80" style="enable-background:new 0 0 80 80;" xml:space="preserve">
<style type="text/css">
	.st0{fill:#FFFFFF;}
</style>
<path id="Linkedin" class="st0" d="M73.82,66.67L73.82,66.67l0.02,0V43.72c0-11.23-2.42-19.87-15.54-19.87
	c-6.31,0-10.54,3.46-12.27,6.74h-0.18v-5.7H33.4v41.77h12.96V45.99c0-5.45,1.03-10.71,7.78-10.71c6.64,0,6.74,6.21,6.74,11.06v20.34
	L73.82,66.67z M12.31,24.9h12.97v41.77H12.31L12.31,24.9z M18.79,4.11c-4.15,0-7.51,3.37-7.51,7.51s3.37,7.58,7.51,7.58
	s7.51-3.44,7.51-7.58C26.3,7.47,22.93,4.11,18.79,4.11z"/>
</svg>
