<?xml version="1.0" encoding="utf-8"?>
<!-- Generator: Adobe Illustrator 24.3.0, SVG Export Plug-In . SVG Version: 6.00 Build 0)  -->
<svg version="1.1" id="Mail_1_" xmlns="http://www.w3.org/2000/svg" xmlns:xlink="http://www.w3.org/1999/xlink" x="0px" y="0px"
	 viewBox="0 0 80 80" style="enable-background:new 0 0 80 80;" xml:space="preserve">
<style type="text/css">
	.st0{fill:none;}
</style>
<path id="Mail" class="st0" d="M74.65,35.36c0-0.08,0.05-0.16,0.05-0.24L53.47,55.58l21.2,19.8c0.01-0.14-0.03-0.28-0.03-0.43
	L74.65,35.36L74.65,35.36z M50.23,58.73l-8.67,8.34c-0.44,0.42-1,0.63-1.57,0.63c-0.55,0-1.11-0.2-1.55-0.61l-8.64-8.05L8.46,79.61
	c0.52,0.19,1.08,0.33,1.66,0.33h59.74c0.87,0,1.68-0.26,2.39-0.66L50.23,58.73z M39.96,62.31l32.4-31.21
	c-0.73-0.44-1.59-0.73-2.5-0.73l-59.74,0c-1.19,0-2.28,0.46-3.13,1.17L39.96,62.31z M5.13,36.12l0,38.83c0,0.45,0.1,0.88,0.21,1.29
	l21.08-20.3L5.13,36.12z"/>
</svg>
