<?xml version="1.0" encoding="utf-8"?>
<!-- Generator: Adobe Illustrator 24.3.0, SVG Export Plug-In . SVG Version: 6.00 Build 0)  -->
<svg version="1.1" id="Showreel_x5F_Button" xmlns="http://www.w3.org/2000/svg" xmlns:xlink="http://www.w3.org/1999/xlink"
	 x="0px" y="0px" viewBox="0 0 300 80" style="enable-background:new 0 0 300 80;" xml:space="preserve">
<style type="text/css">
	.st0{fill:#FFFFFF;}
</style>
<path id="Rahmen" class="st0" d="M297,3v74H3V3H297 M300,0H0v80h300V0L300,0z"/>
<path id="SHWOREEL" class="st0" d="M39.33,52.35c-1.96-0.65-3.5-1.5-4.62-2.54l1.48-3.12c1.07,0.96,2.43,1.74,4.1,2.34
	c1.67,0.6,3.38,0.9,5.14,0.9c2.32,0,4.05-0.39,5.2-1.18c1.15-0.79,1.72-1.83,1.72-3.14c0-0.96-0.31-1.74-0.94-2.34
	c-0.63-0.6-1.4-1.06-2.32-1.38s-2.22-0.68-3.9-1.08c-2.11-0.51-3.81-1.01-5.1-1.52c-1.29-0.51-2.4-1.29-3.32-2.34
	c-0.92-1.05-1.38-2.47-1.38-4.26c0-1.49,0.39-2.84,1.18-4.04c0.79-1.2,1.98-2.16,3.58-2.88c1.6-0.72,3.59-1.08,5.96-1.08
	c1.65,0,3.28,0.21,4.88,0.64s2.97,1.04,4.12,1.84l-1.32,3.2c-1.17-0.75-2.43-1.31-3.76-1.7c-1.33-0.39-2.64-0.58-3.92-0.58
	c-2.27,0-3.97,0.41-5.1,1.24c-1.13,0.83-1.7,1.89-1.7,3.2c0,0.96,0.32,1.74,0.96,2.34c0.64,0.6,1.43,1.07,2.38,1.4
	c0.95,0.33,2.23,0.69,3.86,1.06c2.11,0.51,3.8,1.01,5.08,1.52c1.28,0.51,2.38,1.28,3.3,2.32c0.92,1.04,1.38,2.44,1.38,4.2
	c0,1.47-0.4,2.81-1.2,4.02c-0.8,1.21-2.01,2.17-3.64,2.88c-1.63,0.71-3.63,1.06-6,1.06C43.32,53.33,41.29,53,39.33,52.35z
	 M86.18,25.01v28h-4V40.53H66.1v12.48h-4v-28h4v12.04h16.08V25.01H86.18z M99.58,51.47c-2.27-1.24-4.05-2.95-5.34-5.14
	s-1.94-4.63-1.94-7.32s0.65-5.13,1.94-7.32c1.29-2.19,3.07-3.9,5.34-5.14c2.27-1.24,4.81-1.86,7.64-1.86c2.8,0,5.33,0.62,7.6,1.86
	c2.27,1.24,4.04,2.95,5.32,5.12c1.28,2.17,1.92,4.62,1.92,7.34s-0.64,5.17-1.92,7.34c-1.28,2.17-3.05,3.88-5.32,5.12
	c-2.27,1.24-4.8,1.86-7.6,1.86C104.4,53.33,101.85,52.71,99.58,51.47z M112.76,48.37c1.64-0.93,2.93-2.22,3.88-3.86
	c0.95-1.64,1.42-3.47,1.42-5.5c0-2.03-0.47-3.86-1.42-5.5c-0.95-1.64-2.24-2.93-3.88-3.86c-1.64-0.93-3.49-1.4-5.54-1.4
	c-2.05,0-3.91,0.47-5.58,1.4c-1.67,0.93-2.97,2.22-3.92,3.86c-0.95,1.64-1.42,3.47-1.42,5.5c0,2.03,0.47,3.86,1.42,5.5
	c0.95,1.64,2.25,2.93,3.92,3.86s3.53,1.4,5.58,1.4C109.28,49.77,111.12,49.3,112.76,48.37z M166.87,25.01l-9.36,28h-4.2l-7.64-22.36
	l-7.64,22.36h-4.28l-9.36-28h4.12l7.56,22.76l7.88-22.76h3.68l7.72,22.88l7.72-22.88H166.87z M190.46,53.01l-6.04-8.6
	c-0.75,0.05-1.33,0.08-1.76,0.08h-6.92v8.52h-4v-28h10.92c3.63,0,6.48,0.87,8.56,2.6c2.08,1.73,3.12,4.12,3.12,7.16
	c0,2.16-0.53,4-1.6,5.52c-1.07,1.52-2.59,2.63-4.56,3.32l6.64,9.4H190.46z M188.34,39.45c1.33-1.09,2-2.65,2-4.68
	c0-2.03-0.67-3.58-2-4.66s-3.27-1.62-5.8-1.62h-6.8v12.6h6.8C185.08,41.09,187.01,40.54,188.34,39.45z M221.14,49.53v3.48h-20.32
	v-28h19.76v3.48h-15.76v8.6h14.04v3.4h-14.04v9.04H221.14z M247.94,49.53v3.48h-20.32v-28h19.76v3.48h-15.76v8.6h14.04v3.4h-14.04
	v9.04H247.94z M254.42,25.01h4v24.52h15.16v3.48h-19.16V25.01z"/>
</svg>
