<?xml version="1.0" encoding="utf-8"?>
<!-- Generator: Adobe Illustrator 24.3.0, SVG Export Plug-In . SVG Version: 6.00 Build 0)  -->
<svg version="1.1" id="Sound_x5F_On_1_" xmlns="http://www.w3.org/2000/svg" xmlns:xlink="http://www.w3.org/1999/xlink" x="0px"
	 y="0px" viewBox="0 0 80 80" style="enable-background:new 0 0 80 80;" xml:space="preserve">
<style type="text/css">
	.st0{fill-rule:evenodd;clip-rule:evenodd;fill:#FFFFFF;}
</style>
<path id="Sound_x5F_On" class="st0" d="M40.84,33.78v38.64c-0.66,9.18-15.78-5.76-18.54-5.76H12.29c-1.26,0-1.8-0.6-1.8-1.92V41.51
	c0-0.48,0.3-1.98,1.98-1.98h9.78C25.07,39.53,40.12,24.54,40.84,33.78z M62.86,77.61c13.58-13.58,13.58-35.6,0-49.19
	c-1.29,1.29-2.58,2.58-3.87,3.87c11.45,11.45,11.45,30,0,41.45C60.28,75.03,61.57,76.32,62.86,77.61z M53.34,70.32
	c9.87-9.87,9.87-25.86,0-35.73c-1.29,1.29-2.58,2.58-3.87,3.87c7.73,7.73,7.73,20.26,0,27.99C50.76,67.74,52.05,69.03,53.34,70.32z"
	/>
</svg>
