<?xml version="1.0" encoding="utf-8"?>
<!-- Generator: Adobe Illustrator 22.1.0, SVG Export Plug-In . SVG Version: 6.00 Build 0)  -->
<svg version="1.1" id="Sound_x5F_Off_1_" xmlns="http://www.w3.org/2000/svg" xmlns:xlink="http://www.w3.org/1999/xlink" x="0px"
	 y="0px" viewBox="0 0 80 80" style="enable-background:new 0 0 80 80;" xml:space="preserve">
<path d="M40.8,33.8v38.6c-0.7,9.2-15.8-5.8-18.5-5.8h-10c-1.3,0-1.8-0.6-1.8-1.9V41.5c0-0.5,0.3-2,2-2h9.8
	C25.1,39.5,40.1,24.5,40.8,33.8z"/>
<polygon id="off" points="74.7,60.4 66.5,52.2 74.7,44 70.7,40 62.5,48.2 54.3,40 50.4,44 58.6,52.2 50.4,60.4 54.3,64.4 62.5,56.2 
	70.7,64.4 "/>
<g id="on">
	<path d="M62.9,28.5c-1.3,1.3-2.6,2.6-3.9,3.9c11.5,11.4,11.5,30,0,41.4c1.3,1.3,2.6,2.6,3.9,3.9C76.4,64.1,76.4,42.1,62.9,28.5z"/>
	<path d="M53.3,34.7c-1.3,1.3-2.6,2.6-3.9,3.9c7.7,7.7,7.7,20.3,0,28c1.3,1.3,2.6,2.6,3.9,3.9C63.2,60.5,63.2,44.5,53.3,34.7z"/>
</g>
</svg>
