<?xml version="1.0" encoding="utf-8"?>
<!-- Generator: Adobe Illustrator 24.3.0, SVG Export Plug-In . SVG Version: 6.00 Build 0)  -->
<svg version="1.1" id="Xing_1_" xmlns="http://www.w3.org/2000/svg" xmlns:xlink="http://www.w3.org/1999/xlink" x="0px" y="0px"
	 viewBox="0 0 80 80" style="enable-background:new 0 0 80 80;" xml:space="preserve">
<style type="text/css">
	.st0{fill:none;}
</style>
<path id="Xing" class="st0" d="M27.43,17.61c-0.57-1.01-1.42-2.14-3.17-2.14h-11.4c-0.69,0-1.26,0.24-1.55,0.71
	c-0.3,0.49-0.25,1.11,0.07,1.75l7.7,13.34c0.01,0.03,0.01,0.04,0,0.07L6.97,52.7c-0.32,0.63-0.3,1.26,0,1.75
	c0.29,0.47,0.8,0.78,1.49,0.78h11.4c1.7,0,2.52-1.15,3.11-2.2c0,0,11.84-20.94,12.3-21.75C35.22,31.19,27.43,17.61,27.43,17.61z
	 M73.73,2.35c0.32-0.63,0.32-1.27,0.02-1.76c-0.29-0.47-0.83-0.73-1.51-0.73H60.73c-1.7,0-2.44,1.07-3.05,2.17
	c0,0-24.55,43.53-25.36,44.96c0.04,0.08,16.19,29.7,16.19,29.7c0.57,1.01,1.44,2.17,3.18,2.17h11.38c0.69,0,1.22-0.26,1.51-0.73
	c0.3-0.49,0.29-1.13-0.02-1.76L48.51,47.04c-0.02-0.02-0.02-0.05,0-0.08L73.73,2.35z"/>
</svg>
